<svg id="Capa_1" enable-background="new 0 0 512 512" height="512" viewBox="0 0 512 512" width="512" xmlns="http://www.w3.org/2000/svg"><g><path d="m45.334 22.5v317.5h30v-317.5c0-8.284-6.716-15-15-15-8.285 0-15 6.716-15 15z" fill="#b88567"/><path d="m436.666 24v316h30v-316c0-8.284-6.716-15-15-15s-15 6.716-15 15z" fill="#aa6f51"/><path d="m376.667 188.5h-30l29.999 151c0 8.28 6.71 15 15 15 8.28 0 15-6.72 15-15l.001-121c0-16.5-13.5-30-30-30z" fill="#6a90e7"/><path d="m346.667 188.5h-45.667v151h37.833v146.083c0 10.447 8.469 18.916 18.917 18.916 10.447 0 18.916-8.469 18.916-18.916l.001-267.083c0-16.5-13.5-30-30-30z" fill="#7aa3ff"/><path d="m308.834 188.5h-30l29.999 151c0 8.28 6.71 15 15 15 8.28 0 15-6.72 15-15l.001-121c0-16.5-13.5-30-30-30z" fill="#ff8053"/><path d="m278.834 188.5h-37.833l-.001 151h30v146.083c0 10.447 8.469 18.916 18.917 18.916 10.447 0 18.916-8.469 18.916-18.916l.001-267.083c0-16.5-13.5-30-30-30z" fill="#ffa061"/><path d="m323.505 68.5v90c24.853 0 45-20.147 45-45s-20.147-45-45-45z" fill="#6a90e7"/><path d="m338.505 113.5c0-24.853-6.716-45-15-45-24.853 0-45 20.147-45 45s20.147 45 45 45c8.284 0 15-20.147 15-45z" fill="#7aa3ff"/><path d="m255.672 68.5v90c24.853 0 45-20.147 45-45s-20.147-45-45-45z" fill="#ff8053"/><path d="m270.672 113.5c0-24.853-6.716-45-15-45-24.853 0-45 20.147-45 45s20.147 45 45 45c8.284 0 15-20.147 15-45z" fill="#ffa061"/><path d="m241.001 188.5h-30l29.999 151c0 8.28 6.71 15 15 15 8.28 0 15-6.72 15-15l.001-121c0-16.5-13.5-30-30-30z" fill="#47965c"/><path d="m135.334 188.5h30l-30.001 151c0 8.28-6.72 15-15 15s-15-6.72-15-15l.001-121c0-16.5 13.5-30 30-30z" fill="#6ec48c"/><path d="m241.001 218.5c0-16.5-13.5-30-30-30h-45.667c-16.5 0-30 13.5-30 30v267.084c0 10.447 8.469 18.916 18.917 18.916 10.447 0 18.917-8.469 18.917-18.916v-146.084h30v146.084c0 10.447 8.469 18.916 18.917 18.916 10.447 0 18.916-8.469 18.916-18.916z" fill="#54ab72"/><path d="m187.839 68.5v90c24.853 0 45-20.147 45-45s-20.147-45-45-45z" fill="#47965c"/><path d="m202.839 113.5c0-24.853-6.716-45-15-45-24.853 0-45 20.147-45 45s20.147 45 45 45c8.284 0 15-20.147 15-45z" fill="#54ab72"/><path d="m241 211c-4.143 0-7.5 3.357-7.5 7.5v15c0 4.143 3.357 7.5 7.5 7.5s7.5-3.357 7.5-7.5v-15c0-4.143-3.357-7.5-7.5-7.5z"/><path d="m187.839 166c12.917 0 24.753-4.699 33.908-12.465 9.425 7.989 21.42 12.465 33.925 12.465 12.917 0 24.753-4.699 33.908-12.465 9.425 7.989 21.42 12.465 33.925 12.465 28.948 0 52.5-23.552 52.5-52.5s-23.552-52.5-52.5-52.5c-12.505 0-24.5 4.476-33.925 12.465-9.155-7.766-20.991-12.465-33.908-12.465-12.505 0-24.5 4.476-33.925 12.465-9.155-7.766-20.991-12.465-33.908-12.465-28.948 0-52.5 23.552-52.5 52.5s23.552 52.5 52.5 52.5zm173.166-52.5c0 20.678-16.822 37.5-37.5 37.5-8.816 0-17.284-3.113-23.979-8.686 5.458-8.278 8.646-18.179 8.646-28.814s-3.188-20.536-8.646-28.814c6.695-5.573 15.163-8.686 23.979-8.686 20.678 0 37.5 16.822 37.5 37.5zm-67.833 0c0 20.678-16.822 37.5-37.5 37.5-8.816 0-17.284-3.113-23.979-8.686 5.458-8.278 8.646-18.179 8.646-28.814s-3.188-20.536-8.646-28.814c6.695-5.573 15.163-8.686 23.979-8.686 20.678 0 37.5 16.822 37.5 37.5zm-105.333-37.5c20.678 0 37.5 16.822 37.5 37.5s-16.822 37.5-37.5 37.5-37.5-16.822-37.5-37.5 16.822-37.5 37.5-37.5z"/><path d="m376.667 181h-241.333c-20.678 0-37.5 16.822-37.5 37.5v121c0 12.406 10.094 22.5 22.5 22.5 2.629 0 5.153-.458 7.5-1.29v125.374c0 14.29 11.851 25.916 26.417 25.916 14.565 0 26.416-11.851 26.416-26.416v-138.584h15v138.584c0 14.565 11.851 26.416 26.417 26.416 14.565 0 26.416-11.626 26.416-25.916v-125.297c2.337.784 4.857 1.213 7.5 1.213s5.163-.429 7.5-1.213v124.797c0 14.565 11.851 26.416 26.417 26.416 14.565 0 26.416-11.626 26.416-25.916v-125.297c2.337.784 4.857 1.213 7.5 1.213s5.163-.429 7.5-1.213v124.797c0 14.565 11.851 26.416 26.417 26.416 14.565 0 26.416-11.626 26.416-25.916v-125.297c2.337.784 4.857 1.213 7.5 1.213 12.617 0 22.5-9.663 22.5-22l.001-121.5c0-20.678-16.822-37.5-37.5-37.5zm-120.667 166c-4.275 0-7.5-3.01-7.5-7v-76.5c0-4.143-3.357-7.5-7.5-7.5s-7.5 3.357-7.5 7.5v222.584c0 5.917-5.228 10.916-11.416 10.916-6.295 0-11.417-5.121-11.417-11.416v-146.084c0-4.143-3.357-7.5-7.5-7.5h-30c-4.143 0-7.5 3.357-7.5 7.5v146.084c0 6.295-5.121 11.416-11.416 11.416-6.188 0-11.417-4.999-11.417-10.916v-267.584c0-4.143-3.357-7.5-7.5-7.5s-7.5 3.357-7.5 7.5v121c0 4.136-3.364 7.5-7.5 7.5s-7.5-3.364-7.5-7.5v-121c0-12.406 10.094-22.5 22.5-22.5h105.667c12.406 0 22.5 10.094 22.5 22.5l-.001 121.5c0 3.99-3.225 7-7.5 7zm75.333-7c0 3.99-3.225 7-7.5 7s-7.5-3.01-7.5-7v-121.5c0-4.143-3.357-7.5-7.5-7.5s-7.5 3.357-7.5 7.5v267.584c0 5.917-5.228 10.916-11.416 10.916-6.295 0-11.417-5.121-11.417-11.416v-145.584l.001-121.5c0-8.436-2.801-16.228-7.521-22.5h37.854c12.406 0 22.5 10.094 22.5 22.5 0 0-.001 121.5-.001 121.5zm67.833 0c0 3.99-3.225 7-7.5 7s-7.5-3.01-7.5-7v-121.5c0-4.143-3.357-7.5-7.5-7.5s-7.5 3.357-7.5 7.5v267.584c0 5.917-5.228 10.916-11.416 10.916-6.295 0-11.417-5.121-11.417-11.416l.001-267.084c0-8.436-2.801-16.228-7.521-22.5h37.854c12.406 0 22.5 10.094 22.5 22.5z"/><path d="m504.5 121c4.143 0 7.5-3.357 7.5-7.5s-3.357-7.5-7.5-7.5h-30.334v-45h30.334c4.143 0 7.5-3.357 7.5-7.5s-3.357-7.5-7.5-7.5h-30.334v-22c0-12.406-10.094-22.5-22.5-22.5s-22.5 10.094-22.5 22.5v52h-30.334c-4.143 0-7.5 3.357-7.5 7.5s3.357 7.5 7.5 7.5h30.334v45h-30.334c-4.143 0-7.5 3.357-7.5 7.5s3.357 7.5 7.5 7.5h30.334v189c0 4.143 3.357 7.5 7.5 7.5h30c4.143 0 7.5-3.357 7.5-7.5v-159h30.334c4.143 0 7.5-3.357 7.5-7.5s-3.357-7.5-7.5-7.5h-30.334v-45zm-45.334 211.5h-15v-308.5c0-4.136 3.364-7.5 7.5-7.5s7.5 3.364 7.5 7.5z"/><path d="m113.167 149.5c4.143 0 7.5-3.357 7.5-7.5s-3.357-7.5-7.5-7.5h-30.333v-45h30.333c4.143 0 7.5-3.357 7.5-7.5s-3.357-7.5-7.5-7.5h-30.333v-52c0-12.406-10.094-22.5-22.5-22.5s-22.5 10.094-22.5 22.5v22h-30.334c-4.143 0-7.5 3.357-7.5 7.5s3.357 7.5 7.5 7.5h30.334v45h-30.334c-4.143 0-7.5 3.357-7.5 7.5s3.357 7.5 7.5 7.5h30.334v45h-30.334c-4.143 0-7.5 3.357-7.5 7.5s3.357 7.5 7.5 7.5h30.334v160.5c0 4.143 3.357 7.5 7.5 7.5h30c4.143 0 7.5-3.357 7.5-7.5v-190.5zm-45.333 183h-15v-310c0-4.136 3.364-7.5 7.5-7.5s7.5 3.364 7.5 7.5z"/></g></svg>